<svg id="Capa_1" enable-background="new 0 0 497 497" height="512" viewBox="0 0 497 497" width="512" xmlns="http://www.w3.org/2000/svg"><g id="_x3C_Group_x3E__13_"><path d="m350.877 363.437 49.961 16.526c20.709 6.85 36.069 24.4 40.116 45.834l8.966 47.493c.236 1.25.351 2.49.353 3.71.023 10.801-8.851 15.011-20.112 15.011l-142.385 4.989-39.446-10.674-39.275 10.674-135.83-2.436c-12.533 0-21.978-11.395-19.653-23.71l7.908-42.417c4.047-21.434 19.407-38.984 40.116-45.834l49.961-16.526z" fill="#f5fcff"/><path d="m66.739 477 8.96-47.49c2.7-14.29 12.95-25.99 26.75-30.56l42.493-14.053c1.739-.575 3.651-.229 5.079.918l45.608 36.664c4.3 3.45 9.69 5.36 15.19 5.36 10.34 0 19.56-6.55 22.96-16.31l14.7-42.2 14.72 42.27c3.39 9.75 12.62 16.3 22.95 16.3h.01c5.49 0 10.89-1.9 15.19-5.36l58.9-47.35c2.38-1.91 4.32-4.2 5.79-6.74l-15.16-5.01h-155.6-49.15l-49.96 16.52c-20.71 6.85-36.07 24.4-40.12 45.84l-8.97 47.49c-2.32 12.32 7.12 23.71 19.66 23.71h142.32l39.27-10.67 39.45 10.67h142.49c11.26 0 20.03-9.2 20-20h-383.53z" fill="#e6f7fe"/><path d="m313.168 325.764-6.334-35.842h-116.666l-6.326 35.797 64.487 58.662z" fill="#f4d9b1"/><path d="m128.482 211.47c-22.621 0-40.96-18.338-40.96-40.959v-2.217c0-11.864 9.618-21.482 21.482-21.482h40.659l-1.181 64.658z" fill="#f7e5c1"/><path d="m346.478 211.47h22.311c22.621 0 40.96-18.338 40.96-40.959v-2.217c0-11.864-9.618-21.482-21.482-21.482h-41.789z" fill="#f7e5c1"/><path d="m149.659 146.81-1.18 64.66h-20c-3.64 0-7.17-.48-10.53-1.37-6.23-19.89-9.76-41.24-10.35-63.24.47-.03.93-.05 1.4-.05z" fill="#f4d9b1"/><path d="m389.399 146.84c-.59 22.04-4.13 43.42-10.38 63.34-3.27.84-6.7 1.29-10.23 1.29h-22.31v-64.66h41.79c.38 0 .75.01 1.13.03z" fill="#f4d9b1"/><path d="m287.776 497h-78.721l20.326-65.922 22.557-1 15.511 1z" fill="#b78c7a"/><path d="m210.469 52.311c-48.58 0-87.961 39.381-87.961 87.961 0 93.229 56.409 168.805 125.993 168.805s125.993-75.577 125.993-168.805c0-48.579-39.381-87.961-87.961-87.961z" fill="#f7e5c1"/><path d="m374.499 140.27c0 7.19-.34 14.27-.99 21.22-42.4-3.02-59.53-27.36-77.61-53.02-4.16-5.9-8.39-11.91-13.1-18.01-16.95 23.34-41.07 41.46-71.98 54.02-34.86 14.17-68.28 17.13-87.28 17.47-.68-7.1-1.03-14.34-1.03-21.68 0-25.79 11.1-48.98 28.77-65.06 15.63-14.23 36.4-22.9 59.19-22.9h76.06c9.32 0 18.3 1.45 26.73 4.14 13.54 4.31 25.66 11.81 35.47 21.62 10.4 10.4 18.21 23.4 22.37 37.93 2.22 7.71 3.4 15.85 3.4 24.27z" fill="#f4d9b1"/><path d="m381.394 143.755c-60.34 0-58.414-40.717-102.383-85.149-2.307-2.027-.785-14.129-3.293-23.91-2.478-9.663-.1-17.553.934-20.455 7.477-2.671 25.183-7.829 46.373-2.601 24.959 6.157 38.969 22.829 44.052 28.878 25.574 30.432 22.811 70.771 18.905 92.102-.594 3.243-4.588 11.135-4.588 11.135z" fill="#5f6c75"/><path d="m115.862 141.457c45.52 1.577 125.103-11.34 160.34-80.17 6.88-13.439 8.975-36.703.449-47.046-8.222-4.385-42.351-21.383-85.256-10.859-5.814 1.426-18.101 4.885-31.844 12.818-11.885 6.86-20.103 18.591-30.922 33.722-30.843 43.131-14.643 83.975-12.767 91.535z" fill="#5f6c75"/><path d="m371.019 131.14c-24.67-3.13-34.46-17.04-50.58-39.94-8.13-11.53-17.23-24.46-29.8-37.83.01-.09.01-.17.02-.24 0 0-.023-.024-.067-.071-3.528-3.728-5.576-8.588-5.963-13.706-.758-10.031-3.579-19.778-7.98-25.113-1.56-.83-4.07-2.12-7.39-3.59 3.89 10.66 4.43 27.55.15 36.85-24.923 54.047-83.926 68.676-120.06 69.459-4.735.103-8.912-3.07-10.002-7.679-3.502-14.806-8.536-46.563 10.282-75.791 6.44-9.99 13.88-17.45 21.15-23.01-14.37 6.42-32.54 17.83-46.91 37.92-30.84 43.13-12.82 90.92-10.94 98.48 45.519 1.58 132.737-13.12 167.978-81.947 39.277 42.51 43.727 81.877 101.712 81.877.48-1.55 1.99-6.69 3.36-14.19-9.02-.789-14.96-1.479-14.96-1.479z" fill="#4e5a61"/><g><path d="m374.092 468.595h-55.228c-4.143 0-7.5-3.357-7.5-7.5s3.357-7.5 7.5-7.5h55.228c4.143 0 7.5 3.357 7.5 7.5s-3.358 7.5-7.5 7.5z" fill="#4e5a61"/></g><path d="m277.362 406.666-9.913 24.412h-38.068l-9.769-24.476-.557-52.368 29.432 3 29.432-3z" fill="#ab7b64"/><path d="m281.609 477h-42.257c-4.038 0-6.923-3.909-5.734-7.767l11.761-38.153h-16l-20.32 65.92h16 62.72z" fill="#ab7b64"/><path d="m219.159 354.234v.007l-.1-.01.55 52.37 9.77 24.48h16l-8.391-21.025c-.889-2.229-.948-4.703-.165-6.971l10.715-31.028c.31-.897 1.578-.899 1.89-.002l13.772 39.547c1.53 4.4 4.25 8.15 7.72 10.93l6.44-15.86.46-52.436h-58.661z" fill="#9a6a53"/><g fill="#f5fcff"><path d="m205.025 410.785-58.899-47.348c-3.114-2.503-4.278-6.718-2.889-10.464l11.131-30.033c2.099-5.665 8.704-8.189 14.046-5.368l69.435 36.662-18.236 52.368c-2.111 6.06-9.586 8.204-14.588 4.183z"/><path d="m291.949 410.85 58.899-47.348c3.114-2.503 4.278-6.718 2.889-10.464l-11.131-30.033c-2.099-5.665-8.704-8.189-14.046-5.368l-69.435 36.662 18.236 52.368c2.111 6.06 9.586 8.203 14.588 4.183z"/></g></g></svg>